<svg width="32" height="32" viewBox="0 0 32 32" fill="none" xmlns="http://www.w3.org/2000/svg">
<path d="M16.0138 3.03864C16.9749 3.04927 17.9321 3.16227 18.8709 3.37498C19.0707 3.42024 19.2515 3.52773 19.3881 3.68241C19.5247 3.8371 19.6104 4.03126 19.633 4.23776L19.8556 6.26776C19.887 6.55396 19.9842 6.82868 20.1393 7.0698C20.2943 7.31093 20.503 7.51173 20.7484 7.65605C20.9939 7.80037 21.2693 7.88418 21.5525 7.90074C21.8356 7.9173 22.1187 7.86614 22.3788 7.75138L24.2133 6.9338C24.3996 6.85051 24.6067 6.82803 24.8061 6.86947C25.0055 6.91091 25.1873 7.01422 25.3263 7.16511C26.6514 8.60232 27.6381 10.3259 28.2123 12.2062C28.2725 12.4038 28.2707 12.6155 28.2071 12.812C28.1435 13.0086 28.0213 13.1801 27.8574 13.303L26.2311 14.5207C26.0024 14.6913 25.8165 14.9141 25.6883 15.1711C25.5601 15.4282 25.4933 15.7122 25.4933 16.0004C25.4933 16.2885 25.5601 16.5725 25.6883 16.8296C25.8165 17.0866 26.0024 17.3094 26.2311 17.48L27.8587 18.6964C28.0231 18.8192 28.1457 18.9909 28.2096 19.1877C28.2734 19.3845 28.2753 19.5966 28.2149 19.7945C27.6405 21.6747 26.6538 23.3982 25.3289 24.8356C25.1903 24.9861 25.009 25.0894 24.8102 25.131C24.6113 25.1727 24.4046 25.1508 24.2186 25.0682L22.3762 24.248C22.1164 24.1323 21.8335 24.0804 21.5502 24.0964C21.267 24.1124 20.9914 24.1959 20.7459 24.3401C20.5003 24.4843 20.2916 24.6852 20.1367 24.9264C19.9819 25.1677 19.8851 25.4426 19.8543 25.729L19.633 27.7576C19.6107 27.9619 19.5267 28.1542 19.3927 28.3081C19.2586 28.4621 19.0809 28.5702 18.884 28.6178C16.9874 29.0759 15.0114 29.0759 13.1147 28.6178C12.9178 28.5702 12.7401 28.4621 12.6061 28.3081C12.472 28.1542 12.3881 27.9619 12.3658 27.7576L12.1458 25.7316C12.1137 25.446 12.0161 25.1721 11.8607 24.9318C11.7054 24.6914 11.4967 24.4915 11.2514 24.348C11.0061 24.2044 10.7311 24.1213 10.4484 24.1054C10.1657 24.0894 9.88331 24.141 9.62384 24.256L7.7828 25.0749C7.59658 25.1577 7.38962 25.1798 7.1905 25.1381C6.99138 25.0965 6.8099 24.9931 6.67111 24.8422C5.3456 23.4033 4.35886 21.6779 3.78516 19.7958C3.7248 19.5979 3.72665 19.3858 3.79048 19.189C3.85431 18.9922 3.97694 18.8205 4.14132 18.6977L5.76893 17.48C5.99787 17.3096 6.18406 17.0868 6.3124 16.8298C6.44074 16.5727 6.50762 16.2886 6.50762 16.0004C6.50762 15.7121 6.44074 15.428 6.3124 15.1709C6.18406 14.9139 5.99787 14.6911 5.76893 14.5207L4.14132 13.3056C3.97717 13.1827 3.85481 13.0109 3.79121 12.8141C3.72762 12.6173 3.72597 12.4053 3.78647 12.2076C4.36068 10.3273 5.34741 8.60368 6.67242 7.16644C6.81146 7.01555 6.99324 6.91224 7.19263 6.8708C7.39202 6.82936 7.59917 6.85184 7.78542 6.93513L9.6186 7.75271C9.8792 7.8674 10.1627 7.91844 10.4462 7.90172C10.7298 7.885 11.0055 7.801 11.2513 7.65646C11.497 7.51191 11.706 7.31086 11.8614 7.06945C12.0167 6.82804 12.1141 6.553 12.1458 6.26643L12.3684 4.23776C12.3908 4.03084 12.4765 3.83626 12.6134 3.68129C12.7503 3.52632 12.9316 3.41874 13.1318 3.37365C14.0706 3.16227 15.0304 3.0506 16.0138 3.03864ZM15.9981 12.0121C14.9562 12.0121 13.9571 12.4323 13.2204 13.1803C12.4837 13.9282 12.0698 14.9426 12.0698 16.0004C12.0698 17.0581 12.4837 18.0725 13.2204 18.8204C13.9571 19.5684 14.9562 19.9886 15.9981 19.9886C17.0399 19.9886 18.0391 19.5684 18.7758 18.8204C19.5124 18.0725 19.9263 17.0581 19.9263 16.0004C19.9263 14.9426 19.5124 13.9282 18.7758 13.1803C18.0391 12.4323 17.0399 12.0121 15.9981 12.0121Z" fill="#FFC400"/>
</svg>
