<svg width="24" height="24" viewBox="0 0 24 24" fill="none" xmlns="http://www.w3.org/2000/svg">
<g clip-path="url(#clip0_1_27)">
<path d="M23.9995 12.0733C23.9995 5.40429 18.6265 -0.00170898 11.9995 -0.00170898C5.36952 -0.000208984 -0.003479 5.40429 -0.003479 12.0748C-0.003479 18.1003 4.38552 23.0953 10.1215 24.0013V15.5638H7.07652V12.0748H10.1245V9.41229C10.1245 6.38679 11.917 4.71579 14.6575 4.71579C15.9715 4.71579 17.344 4.95129 17.344 4.95129V7.92129H15.8305C14.341 7.92129 13.876 8.85279 13.876 9.80829V12.0733H17.203L16.672 15.5623H13.8745V23.9998C19.6105 23.0938 23.9995 18.0988 23.9995 12.0733Z" fill="url(#paint0_linear_1_27)"/>
</g>
<defs>
<linearGradient id="paint0_linear_1_27" x1="-0.003479" y1="-0.00170898" x2="23.9995" y2="24.0013" gradientUnits="userSpaceOnUse">
<stop stop-color="#46F0C7"/>
<stop offset="1" stop-color="#46F0F0"/>
</linearGradient>
<clipPath id="clip0_1_27">
<rect width="24" height="24" fill="white"/>
</clipPath>
</defs>
</svg>
