<svg width="27" height="27" viewBox="0 0 27 27" fill="none" xmlns="http://www.w3.org/2000/svg">
<path d="M25.6787 3.764C25.5022 3.19606 25.1901 2.6796 24.7694 2.25916C24.3487 1.83873 23.8321 1.52693 23.2641 1.35066L22.3801 1.076C20.8143 0.590252 19.1455 0.541424 17.554 0.934781C15.9625 1.32814 14.5086 2.14874 13.3494 3.308L12.0214 4.63466C11.1232 3.96222 10.0126 3.63614 8.89343 3.71622C7.77423 3.79631 6.72142 4.27718 5.92808 5.07066L4.27341 6.728C4.08614 6.9155 3.98096 7.16966 3.98096 7.43467C3.98096 7.69967 4.08614 7.95383 4.27341 8.14133L6.39474 10.2627L6.15474 10.5027C5.93805 10.7193 5.76616 10.9766 5.64888 11.2597C5.5316 11.5428 5.47124 11.8462 5.47124 12.1527C5.47124 12.4591 5.5316 12.7625 5.64888 13.0456C5.76616 13.3288 5.93805 13.586 6.15474 13.8027L6.81608 14.4627L4.95474 15.524C4.82115 15.6003 4.70696 15.7064 4.62105 15.834C4.53515 15.9617 4.47986 16.1074 4.45948 16.2599C4.43909 16.4124 4.45417 16.5675 4.50353 16.7132C4.55289 16.8589 4.63521 16.9913 4.74408 17.1L9.92941 22.2867C10.0382 22.3952 10.1706 22.4772 10.3162 22.5263C10.4618 22.5754 10.6168 22.5903 10.7691 22.5698C10.9214 22.5493 11.067 22.494 11.1944 22.4081C11.3219 22.3222 11.4279 22.2081 11.5041 22.0747L12.5681 20.2147L13.2307 20.8773C13.4474 21.094 13.7047 21.2659 13.9878 21.3832C14.2709 21.5005 14.5743 21.5608 14.8807 21.5608C15.1872 21.5608 15.4906 21.5005 15.7737 21.3832C16.0568 21.2659 16.3141 21.094 16.5307 20.8773L16.7667 20.6427L18.8867 22.7627C19.0742 22.9499 19.3284 23.0551 19.5934 23.0551C19.8584 23.0551 20.1126 22.9499 20.3001 22.7627L21.9561 21.1053C22.7493 20.3125 23.2302 19.2602 23.3105 18.1416C23.3908 17.0229 23.0652 15.9127 22.3934 15.0147L23.7241 13.684C24.8838 12.5243 25.7046 11.0697 26.0977 9.47735C26.4909 7.88504 26.4414 6.21558 25.9547 4.64933L25.6787 3.764ZM22.6707 3.26C23.1947 3.42266 23.6054 3.83333 23.7681 4.35733L24.0441 5.24266C24.4224 6.46091 24.4607 7.75938 24.1547 8.99778C23.8488 10.2362 23.2102 11.3675 22.3081 12.2693L15.1147 19.464C15.0523 19.5263 14.9676 19.5613 14.8794 19.5613C14.7912 19.5613 14.7066 19.5263 14.6441 19.464L7.56808 12.3867C7.50579 12.3242 7.47081 12.2396 7.47081 12.1513C7.47081 12.0631 7.50579 11.9785 7.56808 11.916L14.7627 4.72C15.6646 3.81832 16.7957 3.18016 18.0339 2.87445C19.272 2.56873 20.5701 2.60707 21.7881 2.98533L22.6707 3.26ZM20.9521 16.4547C21.5561 17.476 21.4187 18.8133 20.5414 19.6907L19.5921 20.64L18.1787 19.228L20.9521 16.4547ZM7.34408 6.48533C7.76179 6.06764 8.30648 5.80064 8.89251 5.7263C9.47853 5.65196 10.0726 5.7745 10.5814 6.07467L7.80808 8.848L6.39474 7.43467L7.34408 6.48533ZM11.1014 18.7493L10.4161 19.9453L7.08274 16.612L8.28008 15.9293L11.1014 18.7493Z" fill="#DB00FF"/>
<path d="M7.34408 6.48533C7.76179 6.06764 8.30648 5.80064 8.89251 5.7263C9.47853 5.65196 10.0726 5.7745 10.5814 6.07467L7.80808 8.848L6.39474 7.43467L7.34408 6.48533Z" fill="#DB00FF"/>
<path d="M11.1014 18.7493L10.4161 19.9453L7.08274 16.612L8.28008 15.9293L11.1014 18.7493Z" fill="#DB00FF"/>
<path d="M20.9521 16.4547C21.5561 17.476 21.4187 18.8133 20.5414 19.6907L19.5921 20.64L18.1787 19.228L20.9521 16.4547Z" fill="#DB00FF"/>
<path d="M22.6707 3.26C23.1947 3.42266 23.6054 3.83333 23.7681 4.35733L24.0441 5.24266C24.4224 6.46091 24.4607 7.75938 24.1547 8.99778C23.8488 10.2362 23.2102 11.3675 22.3081 12.2693L15.1147 19.464C15.0523 19.5263 14.9676 19.5613 14.8794 19.5613C14.7912 19.5613 14.7066 19.5263 14.6441 19.464L7.56808 12.3867C7.50579 12.3242 7.47081 12.2396 7.47081 12.1513C7.47081 12.0631 7.50579 11.9785 7.56808 11.916L14.7627 4.72C15.6646 3.81832 16.7957 3.18016 18.0339 2.87445C19.272 2.56873 20.5701 2.60707 21.7881 2.98533L22.6707 3.26Z" fill="#DB00FF"/>
<path d="M15.2117 7.54537C15.7743 6.98276 16.5374 6.66669 17.333 6.66669C18.1287 6.66669 18.8917 6.98276 19.4543 7.54537C20.0169 8.10798 20.333 8.87104 20.333 9.66669C20.333 10.4623 20.0169 11.2254 19.4543 11.788C18.8917 12.3506 18.1287 12.6667 17.333 12.6667C16.5374 12.6667 15.7743 12.3506 15.2117 11.788C14.6491 11.2254 14.333 10.4623 14.333 9.66669C14.333 8.87104 14.6491 8.10798 15.2117 7.54537ZM18.1813 8.8172C18.0698 8.7058 17.9375 8.61745 17.7919 8.55719C17.6462 8.49693 17.4902 8.46595 17.3326 8.466C17.175 8.46606 17.0189 8.49715 16.8734 8.55752C16.7278 8.61788 16.5955 8.70632 16.4841 8.8178C16.3727 8.92928 16.2844 9.0616 16.2241 9.20723C16.1639 9.35285 16.1329 9.50891 16.1329 9.66651C16.133 9.82411 16.1641 9.98015 16.2244 10.1257C16.2848 10.2713 16.3732 10.4036 16.4847 10.515C16.711 10.7335 17.0141 10.8545 17.3287 10.8517C17.6433 10.849 17.9442 10.7228 18.1667 10.5004C18.3891 10.2779 18.5153 9.97696 18.5181 9.66237C18.5208 9.34777 18.3999 9.04469 18.1813 8.8184V8.8172Z" fill="#DADBF3"/>
<path d="M5.91986 22.5267C6.10211 22.3381 6.20302 22.0856 6.20087 21.8234C6.19872 21.5612 6.09367 21.3103 5.90834 21.1248C5.72302 20.9393 5.47226 20.834 5.21006 20.8316C4.94786 20.8292 4.69521 20.9299 4.50653 21.112L1.20519 24.412C1.02312 24.6007 0.922445 24.8533 0.924847 25.1155C0.927248 25.3777 1.03253 25.6285 1.21803 25.8138C1.40353 25.9991 1.65439 26.1042 1.91659 26.1063C2.17879 26.1085 2.43134 26.0076 2.61986 25.8253L5.91986 22.5267Z" fill="#DB00FF"/>
<path d="M3.32661 18.52C3.51388 18.7075 3.61906 18.9617 3.61906 19.2267C3.61906 19.4917 3.51388 19.7458 3.32661 19.9333L1.91328 21.3466C1.82107 21.4422 1.71077 21.5184 1.58879 21.5709C1.46681 21.6234 1.3356 21.651 1.20282 21.6522C1.07004 21.6534 0.938353 21.6282 0.815434 21.578C0.692514 21.5278 0.580828 21.4536 0.486891 21.3597C0.392955 21.2659 0.318649 21.1542 0.26831 21.0314C0.217971 20.9085 0.192608 20.7768 0.193698 20.6441C0.194789 20.5113 0.222313 20.38 0.274664 20.258C0.327014 20.136 0.403144 20.0256 0.498609 19.9333L1.91194 18.52C2.00481 18.4271 2.11508 18.3533 2.23644 18.303C2.35781 18.2528 2.4879 18.2269 2.61928 18.2269C2.75065 18.2269 2.88074 18.2528 3.00211 18.303C3.12348 18.3533 3.23374 18.4271 3.32661 18.52Z" fill="#DB00FF"/>
<path d="M8.50913 25.1213C8.60738 25.0298 8.68618 24.9194 8.74084 24.7967C8.79549 24.674 8.82488 24.5416 8.82725 24.4074C8.82962 24.2731 8.80492 24.1397 8.75463 24.0152C8.70433 23.8907 8.62947 23.7776 8.53451 23.6826C8.43955 23.5876 8.32644 23.5128 8.20193 23.4625C8.07741 23.4122 7.94404 23.3875 7.80976 23.3899C7.67549 23.3922 7.54308 23.4216 7.42041 23.4763C7.29774 23.5309 7.18734 23.6097 7.0958 23.708L5.68379 25.1187C5.50715 25.3082 5.41099 25.5589 5.41556 25.818C5.42013 26.0771 5.52508 26.3243 5.7083 26.5075C5.89152 26.6907 6.1387 26.7957 6.39777 26.8002C6.65683 26.8048 6.90756 26.7086 7.09713 26.532L8.51046 25.1213H8.50913Z" fill="#DB00FF"/>
</svg>
